<?xml version="1.0" encoding="UTF-8" standalone="no"?>
<!-- Created with Inkscape (http://www.inkscape.org/) -->

<svg
   width="8.1121664mm"
   height="7.218164mm"
   viewBox="0 0 8.1121664 7.218164"
   version="1.1"
   id="svg1"
   xml:space="preserve"
   xmlns="http://www.w3.org/2000/svg"><defs
     id="defs1" /><g
     id="layer1"
     transform="translate(-96.14917,-135.90592)"><g
       id="g3"
       style="fill:#ffffff;fill-opacity:0.462445"><g
         style="fill:#ffffff;fill-opacity:0.462445"
         id="g1"
         transform="matrix(0.26458333,0,0,0.26458333,98.387442,140.75833)"><path
           id="path6"
           style="opacity:1;fill:#ffffff;fill-opacity:0.462445"
           d="m 22.200546,-18.339831 -2.003907,1.148437 V 8.941419 h 2.003907 z m -4.007813,2.333984 -1.990234,1.146484 V 8.941419 h 1.990234 z m -4.03125,2.308594 -1.992188,1.183594 V 8.941419 h 1.992188 z m -3.996094,2.332031 -2.236328,1.318359 V 8.941419 h 2.271484 z" /></g><g
         style="fill:#1a1a1a;fill-opacity:0.462445"
         id="g2"
         transform="matrix(0.26458333,0,0,0.26458333,94.050936,143.27845)"><path
           id="path6-5"
           style="opacity:1;fill:#ffffff;fill-opacity:0.462445"
           d="m 22.199864,-18.339304 -2.003906,1.148438 v 16.60742185 h 2.003906 z m -4.007812,2.333985 -1.990234,1.146484 v 14.27539085 h 1.990234 z m -4.029297,2.308593 -1.992188,1.183594 v 11.92968785 h 1.992188 z m -3.998047,2.330079 -2.234375,1.320312 v 9.46289085 h 2.253906 z" /></g></g></g></svg>
