<?xml version="1.0" encoding="UTF-8" standalone="no"?>
<svg
   width="2002"
   height="1185"
   viewBox="0 0 2002 1185"
   fill="none"
   version="1.1"
   id="svg51"
   style="filter: hue-rotate(310deg);"
   xmlns="http://www.w3.org/2000/svg">
  <g
     clip-path="url(#clip0_1439_19843)"
     id="g13">
    <path
       d="M1886.13 89.4215L1154.23 -714.749C1090.41 -784.875 981.437 -789.685 910.839 -725.492L101.254 10.6403C30.6563 74.8331 25.1648 183.72 88.9887 253.846L820.891 1058.02C884.715 1128.14 993.685 1132.95 1064.28 1068.76L1873.87 332.627C1944.47 268.434 1949.96 159.547 1886.13 89.4215Z"
       fill="url(#paint0_linear_1439_19843)"
       id="path1" />
    <path
       d="M1806.82 176.148L1252.21 -579.318C1203.84 -645.197 1110.9 -659.138 1044.62 -610.457L284.499 -52.2044C218.214 -3.5231 203.686 89.3462 252.049 155.225L806.657 910.691C855.021 976.57 947.961 990.511 1014.25 941.83L1774.37 383.577C1840.65 334.896 1855.18 242.027 1806.82 176.148Z"
       fill="url(#paint1_linear_1439_19843)"
       id="path2" />
    <path
       d="M1731.07 243.325L1324.02 -454.371C1288.52 -515.212 1210.14 -535.533 1148.94 -499.761L447.2 -89.5336C386.006 -53.7607 365.173 24.5604 400.669 85.4015L807.72 783.097C843.216 843.938 921.599 864.26 982.793 828.487L1684.54 418.26C1745.73 382.487 1766.56 304.166 1731.07 243.325Z"
       fill="url(#paint2_linear_1439_19843)"
       id="path3" />
    <path
       d="M1660.12 294.067L1374.33 -340.775C1349.41 -396.135 1284.08 -420.613 1228.4 -395.446L590.003 -106.854C534.332 -81.6879 509.406 -16.4086 534.327 38.9515L820.12 673.794C845.042 729.154 910.375 753.631 966.045 728.465L1604.45 439.872C1660.12 414.706 1685.04 349.427 1660.12 294.067Z"
       fill="url(#paint3_linear_1439_19843)"
       id="path4" />
    <path
       d="M1594.77 331.161L1407.24 -238.846C1390.89 -288.552 1337.11 -315.414 1287.13 -298.843L713.953 -108.815C663.97 -92.2438 636.708 -38.5155 653.061 11.1907L840.59 581.198C856.943 630.904 910.718 657.765 960.701 641.194L1533.88 451.166C1583.86 434.595 1611.12 380.867 1594.77 331.161Z"
       fill="url(#paint4_linear_1439_19843)"
       id="path5" />
    <path
       d="M1535.43 357.061L1426.28 -148.488C1416.76 -192.573 1373.1 -220.436 1328.77 -210.721L820.364 -99.3108C776.03 -89.5956 747.805 -45.9816 757.324 -1.89633L866.473 503.652C875.991 547.738 919.647 575.6 963.982 565.885L1472.39 454.475C1516.72 444.76 1544.95 401.146 1535.43 357.061Z"
       fill="url(#paint5_linear_1439_19843)"
       id="path6" />
    <path
       d="M1482.25 373.904L1434.47 -69.3046C1430.31 -107.954 1395.41 -135.761 1356.54 -131.414L910.713 -81.5629C871.836 -77.2157 843.698 -42.3604 847.864 -3.71133L895.641 439.498C899.807 478.147 934.701 505.954 973.578 501.607L1419.4 451.756C1458.28 447.409 1486.42 412.553 1482.25 373.904Z"
       fill="url(#paint6_linear_1439_19843)"
       id="path7" />
    <path
       d="M1435.16 383.542L1434.38 -0.676883C1434.31 -34.1819 1406.92 -61.1507 1373.2 -60.9134L986.554 -58.1923C952.837 -57.955 925.56 -30.6015 925.628 2.90349L926.414 387.122C926.482 420.627 953.871 447.596 987.587 447.359L1374.24 444.638C1407.95 444.4 1435.23 417.047 1435.16 383.542Z"
       fill="url(#paint7_linear_1439_19843)"
       id="path8" />
    <path
       d="M1395.15 388.081L1428.83 57.5365C1431.77 28.7121 1410.6 3.06347 1381.55 0.248789L1048.39 -32.0286C1019.34 -34.8433 993.409 -13.7582 990.472 15.0663L956.79 345.611C953.853 374.436 975.023 400.084 1004.08 402.899L1337.23 435.176C1366.28 437.991 1392.22 416.906 1395.15 388.081Z"
       fill="url(#paint8_linear_1439_19843)"
       id="path9" />
    <path
       d="M1357.82 388.579L1416.93 106.436C1422.09 81.8327 1406.42 57.8413 1381.95 52.8501L1101.25 -4.38671C1076.78 -9.37792 1052.75 6.5211 1047.6 31.1248L988.48 313.267C983.325 337.871 998.989 361.863 1023.47 366.854L1304.16 424.09C1328.64 429.082 1352.66 413.183 1357.82 388.579Z"
       fill="url(#paint9_linear_1439_19843)"
       id="path10" />
    <path
       d="M1327.29 385.089L1403.26 148.596C1409.88 127.973 1398.62 105.989 1378.1 99.4946L1142.76 25.0144C1122.23 18.5195 1100.23 29.9725 1093.6 50.5954L1017.63 287.089C1011 307.711 1022.27 329.695 1042.79 336.19L1278.13 410.67C1298.66 417.165 1320.66 405.712 1327.29 385.089Z"
       fill="url(#paint10_linear_1439_19843)"
       id="path11" />
    <path
       d="M1301.44 379.333L1387.78 183.463C1395.31 166.382 1387.63 146.517 1370.63 139.093L1175.69 53.9565C1158.69 46.5323 1138.81 54.3603 1131.28 71.4407L1044.94 267.311C1037.41 284.391 1045.09 304.256 1062.08 311.68L1257.02 396.817C1274.02 404.241 1293.91 396.413 1301.44 379.333Z"
       fill="url(#paint11_linear_1439_19843)"
       id="path12" />
    <path
       d="M1279.79 372.064L1371.39 211.936C1379.37 197.972 1374.58 180.247 1360.69 172.346L1201.32 81.7394C1187.43 73.8383 1169.69 78.7529 1161.7 92.7165L1070.11 252.845C1062.12 266.808 1066.91 284.533 1080.81 292.434L1240.17 383.041C1254.07 390.942 1271.81 386.027 1279.79 372.064Z"
       fill="url(#paint12_linear_1439_19843)"
       id="path13" />
  </g>
  <defs
     id="defs51">
    <linearGradient
       id="paint0_linear_1439_19843"
       x1="936.454"
       y1="1184.99"
       x2="1025.93"
       y2="-842.285"
       gradientUnits="userSpaceOnUse">
      <stop
         stop-color="#6B57FF"
         stop-opacity="0"
         id="stop13" />
      <stop
         offset="0.1"
         stop-color="#6B57FF"
         stop-opacity="0"
         id="stop14" />
      <stop
         offset="0.695"
         stop-color="#6B57FF"
         stop-opacity="0.15"
         id="stop15" />
    </linearGradient>
    <linearGradient
       id="paint1_linear_1439_19843"
       x1="894.227"
       y1="1029.98"
       x2="1153.76"
       y2="-700.234"
       gradientUnits="userSpaceOnUse">
      <stop
         stop-color="#6B57FF"
         stop-opacity="0"
         id="stop16" />
      <stop
         offset="0.1"
         stop-color="#6B57FF"
         stop-opacity="0"
         id="stop17" />
      <stop
         offset="0.695"
         stop-color="#6B57FF"
         stop-opacity="0.15"
         id="stop18" />
    </linearGradient>
    <linearGradient
       id="paint2_linear_1439_19843"
       x1="871.991"
       y1="893.26"
       x2="1250.56"
       y2="-566.914"
       gradientUnits="userSpaceOnUse">
      <stop
         stop-color="#6B57FF"
         stop-opacity="0"
         id="stop19" />
      <stop
         offset="0.1"
         stop-color="#6B57FF"
         stop-opacity="0"
         id="stop20" />
      <stop
         offset="0.695"
         stop-color="#6B57FF"
         stop-opacity="0.15"
         id="stop21" />
    </linearGradient>
    <linearGradient
       id="paint3_linear_1439_19843"
       x1="865.245"
       y1="774.032"
       x2="1321.54"
       y2="-443.886"
       gradientUnits="userSpaceOnUse">
      <stop
         stop-color="#6B57FF"
         stop-opacity="0"
         id="stop22" />
      <stop
         offset="0.1"
         stop-color="#6B57FF"
         stop-opacity="0"
         id="stop23" />
      <stop
         offset="0.695"
         stop-color="#6B57FF"
         stop-opacity="0.15"
         id="stop24" />
    </linearGradient>
    <linearGradient
       id="paint4_linear_1439_19843"
       x1="870.199"
       y1="671.199"
       x2="1371.31"
       y2="-332.004"
       gradientUnits="userSpaceOnUse">
      <stop
         stop-color="#6B57FF"
         stop-opacity="0"
         id="stop25" />
      <stop
         offset="0.1"
         stop-color="#6B57FF"
         stop-opacity="0"
         id="stop26" />
      <stop
         offset="0.695"
         stop-color="#6B57FF"
         stop-opacity="0.15"
         id="stop27" />
    </linearGradient>
    <linearGradient
       id="paint5_linear_1439_19843"
       x1="883.707"
       y1="583.476"
       x2="1403.9"
       y2="-231.592"
       gradientUnits="userSpaceOnUse">
      <stop
         stop-color="#6B57FF"
         stop-opacity="0"
         id="stop28" />
      <stop
         offset="0.1"
         stop-color="#6B57FF"
         stop-opacity="0"
         id="stop29" />
      <stop
         offset="0.695"
         stop-color="#6B57FF"
         stop-opacity="0.15"
         id="stop30" />
    </linearGradient>
    <linearGradient
       id="paint6_linear_1439_19843"
       x1="903.185"
       y1="509.478"
       x2="1422.81"
       y2="-142.566"
       gradientUnits="userSpaceOnUse">
      <stop
         stop-color="#6B57FF"
         stop-opacity="0"
         id="stop31" />
      <stop
         offset="0.1"
         stop-color="#6B57FF"
         stop-opacity="0"
         id="stop32" />
      <stop
         offset="0.695"
         stop-color="#6B57FF"
         stop-opacity="0.15"
         id="stop33" />
    </linearGradient>
    <linearGradient
       id="paint7_linear_1439_19843"
       x1="926.538"
       y1="447.788"
       x2="1431.01"
       y2="-64.5338"
       gradientUnits="userSpaceOnUse">
      <stop
         stop-color="#6B57FF"
         stop-opacity="0"
         id="stop34" />
      <stop
         offset="0.1"
         stop-color="#6B57FF"
         stop-opacity="0"
         id="stop35" />
      <stop
         offset="0.695"
         stop-color="#6B57FF"
         stop-opacity="0.15"
         id="stop36" />
    </linearGradient>
    <linearGradient
       id="paint8_linear_1439_19843"
       x1="951.472"
       y1="397.802"
       x2="1431.23"
       y2="1.80725"
       gradientUnits="userSpaceOnUse">
      <stop
         stop-color="#6B57FF"
         stop-opacity="0"
         id="stop37" />
      <stop
         offset="0.1"
         stop-color="#6B57FF"
         stop-opacity="0"
         id="stop38" />
      <stop
         offset="0.695"
         stop-color="#6B57FF"
         stop-opacity="0.15"
         id="stop39" />
    </linearGradient>
    <linearGradient
       id="paint9_linear_1439_19843"
       x1="979.146"
       y1="357.816"
       x2="1428.1"
       y2="64.6983"
       gradientUnits="userSpaceOnUse">
      <stop
         stop-color="#6B57FF"
         stop-opacity="0"
         id="stop40" />
      <stop
         offset="0.1"
         stop-color="#6B57FF"
         stop-opacity="0"
         id="stop41" />
      <stop
         offset="0.695"
         stop-color="#6B57FF"
         stop-opacity="0.15"
         id="stop42" />
    </linearGradient>
    <linearGradient
       id="paint10_linear_1439_19843"
       x1="1005.63"
       y1="324.43"
       x2="1416.57"
       y2="113.829"
       gradientUnits="userSpaceOnUse">
      <stop
         stop-color="#6B57FF"
         stop-opacity="0"
         id="stop43" />
      <stop
         offset="0.1"
         stop-color="#6B57FF"
         stop-opacity="0"
         id="stop44" />
      <stop
         offset="0.695"
         stop-color="#6B57FF"
         stop-opacity="0.15"
         id="stop45" />
    </linearGradient>
    <linearGradient
       id="paint11_linear_1439_19843"
       x1="1031.31"
       y1="298.238"
       x2="1402.31"
       y2="154.861"
       gradientUnits="userSpaceOnUse">
      <stop
         stop-color="#6B57FF"
         stop-opacity="0"
         id="stop46" />
      <stop
         offset="0.1"
         stop-color="#6B57FF"
         stop-opacity="0"
         id="stop47" />
      <stop
         offset="0.695"
         stop-color="#6B57FF"
         stop-opacity="0.15"
         id="stop48" />
    </linearGradient>
    <linearGradient
       id="paint12_linear_1439_19843"
       x1="1055.64"
       y1="278.128"
       x2="1386.41"
       y2="188.726"
       gradientUnits="userSpaceOnUse">
      <stop
         stop-color="#6B57FF"
         stop-opacity="0"
         id="stop49" />
      <stop
         offset="0.1"
         stop-color="#6B57FF"
         stop-opacity="0"
         id="stop50" />
      <stop
         offset="0.695"
         stop-color="#6B57FF"
         stop-opacity="0.15"
         id="stop51" />
    </linearGradient>
    <clipPath
       id="clip0_1439_19843">
      <rect
         width="2002"
         height="1185"
         fill="white"
         id="rect51" />
    </clipPath>
  </defs>
</svg>
