<?xml version="1.0" encoding="UTF-8" standalone="no"?>
<!-- Created with Inkscape (http://www.inkscape.org/) -->

<svg
        width="190.22658mm"
        height="137.61909mm"
        viewBox="0 0 190.22658 137.61909"
        version="1.1"
        id="svg1"
        xml:space="preserve"
        xmlns="http://www.w3.org/2000/svg"
><defs
     id="defs1" /><g
     id="layer1"
     transform="translate(-12.116292,-97.858417)"><path
       style="fill:#000000;stroke-width:0.822138"
       d="m 106.08272,235.16059 c -0.67737,-0.22124 -1.86476,-0.80856 -2.63866,-1.30516 -0.77389,-0.4966 -2.19621,-1.72472 -3.16071,-2.72915 -0.964498,-1.00443 -2.469556,-2.92865 -3.344571,-4.27606 -0.875015,-1.3474 -2.063456,-3.3928 -2.64098,-4.54532 -0.577524,-1.15252 -1.050044,-2.21489 -1.050044,-2.36082 0,-0.14592 1.067496,0.1962 2.372212,0.76029 1.65722,0.71649 2.961433,1.06776 4.327137,1.16548 1.075206,0.0769 2.289316,0.0559 2.698026,-0.0466 0.40871,-0.10258 1.21299,-0.59907 1.78731,-1.10332 0.57431,-0.50425 1.55939,-1.67547 2.18906,-2.60271 0.72448,-1.06685 1.41725,-1.75425 1.88669,-1.87207 0.50905,-0.12777 0.98417,-0.007 1.51416,0.38487 0.42479,0.31409 1.34617,1.38876 2.04751,2.38816 0.70133,0.9994 1.6802,2.06408 2.17524,2.36595 0.62147,0.37897 1.44543,0.54919 2.66197,0.54994 1.09543,6.7e-4 2.52809,-0.25951 3.78739,-0.68783 1.11402,-0.37889 2.43554,-0.90095 2.93672,-1.16012 0.50117,-0.25917 0.99481,-0.47122 1.09696,-0.47122 0.10216,0 -0.43161,1.142 -1.18613,2.53778 -0.75453,1.39578 -2.02657,3.51664 -2.82676,4.71302 -0.80018,1.19638 -2.51131,3.21936 -3.80251,4.4955 -1.53257,1.5147 -2.95136,2.61237 -4.08655,3.16166 -1.2333,0.59676 -2.28746,0.87028 -3.6254,0.94071 -1.09908,0.0579 -2.40054,-0.0686 -3.11807,-0.30294 z M 43.914168,228.0327 c -0.73331,-0.12989 -1.729249,-0.44092 -2.213201,-0.69119 -0.48395,-0.25025 -1.21655,-0.85508 -1.627997,-1.34406 -0.411448,-0.48898 -0.831467,-1.33351 -0.933375,-1.87673 -0.101909,-0.54321 -0.02504,-1.4732 0.170807,-2.06665 0.195853,-0.59343 0.893982,-1.61654 1.5514,-2.27357 0.657417,-0.65702 1.847875,-1.50297 2.645463,-1.87987 0.914348,-0.43207 9.487348,-2.47022 23.202561,-5.51617 l 21.752401,-4.83088 0.23722,1.46264 c 0.130471,0.80445 0.627904,2.70253 1.105407,4.21794 0.477503,1.51541 0.93112,2.90286 1.008037,3.0832 0.08199,0.19223 -0.290787,0.40868 -0.900994,0.52316 -0.761012,0.14276 -1.118349,0.39911 -1.329132,0.95351 -0.193525,0.50901 -0.189215,1.04248 0.01311,1.62286 0.165769,0.47553 0.301399,1.23418 0.301399,1.68589 0,0.63415 0.16521,0.86276 0.725081,1.00327 0.653017,0.1639 0.725079,0.32676 0.725079,1.63865 v 1.45667 l -0.958988,-0.15563 c -0.527444,-0.0856 -1.428016,-0.35159 -2.001272,-0.59111 -0.763342,-0.31894 -1.084202,-0.65614 -1.198916,-1.25998 -0.08615,-0.45347 -0.239717,-1.82413 -0.341264,-3.04592 l -0.184631,-2.22144 -3.240581,0.85927 c -1.782319,0.4726 -9.374757,2.48854 -16.872084,4.47987 -7.497328,1.99133 -14.545106,3.87059 -15.661729,4.17614 -1.116623,0.30555 -2.617539,0.61647 -3.335368,0.69092 -0.717829,0.0745 -1.905124,0.0291 -2.638433,-0.10079 z m 124.741902,0.0866 c -0.39879,-0.0795 -3.20485,-0.78363 -6.23568,-1.56473 -3.03084,-0.78111 -11.05747,-2.90104 -17.83697,-4.71096 -8.33409,-2.22495 -12.39537,-3.18924 -12.53945,-2.9773 -0.11719,0.17241 -0.21508,0.59972 -0.21752,0.94959 -0.002,0.34987 -0.27068,0.82261 -0.59609,1.05053 -0.43863,0.30724 -0.57346,0.68428 -0.52136,1.45795 0.0502,0.74401 -0.11307,1.2387 -0.56848,1.72346 -0.35132,0.37396 -0.64291,0.93255 -0.64799,1.2413 -0.005,0.30875 -0.1826,0.78977 -0.39451,1.06893 -0.21191,0.27915 -0.52361,0.50755 -0.69266,0.50755 -0.16905,0 -0.97412,-0.74808 -1.78904,-1.6624 -0.81493,-0.91433 -1.44343,-1.86055 -1.39667,-2.10274 0.0545,-0.28222 0.42007,-0.44387 1.01817,-0.45021 0.57956,-0.006 1.09652,-0.22594 1.36425,-0.58006 0.2371,-0.3136 0.43523,-0.76788 0.4403,-1.00952 0.005,-0.24164 0.27026,-0.92636 0.58929,-1.52162 0.31904,-0.59525 0.58007,-1.25145 0.58007,-1.45822 0,-0.20676 -0.57659,-0.53016 -1.28131,-0.71863 l -1.28131,-0.3427 0.82371,-1.53016 c 0.45304,-0.84159 1.02962,-2.33208 1.2813,-3.31221 0.25168,-0.98014 0.45761,-2.2309 0.45761,-2.77948 0,-0.54858 0.0714,-1.0689 0.15884,-1.15626 0.0874,-0.0874 1.22937,0.0849 2.53778,0.38281 1.30841,0.29792 4.01036,0.87594 6.00433,1.28449 1.99398,0.40856 7.6061,1.66087 12.47139,2.78291 4.86528,1.12204 11.42263,2.61018 14.5719,3.30696 3.14926,0.69679 6.29758,1.51976 6.99626,1.82883 0.6987,0.30906 1.81751,1.05625 2.48625,1.66044 0.66876,0.60417 1.40324,1.46074 1.63219,1.90348 0.22895,0.44273 0.41578,1.36614 0.41518,2.05202 -6.4e-4,0.7395 -0.23982,1.63862 -0.58767,2.20917 -0.37796,0.61993 -1.12546,1.20735 -2.10165,1.65158 -0.83327,0.3792 -2.16762,0.75027 -2.96521,0.82459 -0.79759,0.0743 -1.77645,0.0701 -2.17525,-0.009 z m -69.765458,-8.19529 c -0.485576,-0.11631 -1.691138,-0.64229 -2.679026,-1.16883 -0.987888,-0.52654 -2.394302,-1.59681 -3.125362,-2.37837 -0.731061,-0.78156 -1.672021,-2.16731 -2.091023,-3.07944 -0.579026,-1.2605 -0.790935,-2.25663 -0.883151,-4.15152 -0.100722,-2.0697 -0.01911,-2.72415 0.480528,-3.85368 0.511224,-1.15571 0.836799,-1.46815 2.16208,-2.07489 0.858123,-0.39286 2.576759,-0.97427 3.819188,-1.29204 1.242429,-0.31775 3.645244,-0.7092 5.339584,-0.86988 1.69434,-0.16067 5.29937,-0.29147 8.01117,-0.29066 2.84331,8.2e-4 6.15832,0.18309 7.83086,0.43049 1.59518,0.23596 3.79083,0.71143 4.87923,1.05659 1.08839,0.34515 2.38648,0.90222 2.88463,1.23793 0.49816,0.33571 1.17383,1.06673 1.50148,1.6245 0.49003,0.83416 0.59436,1.50308 0.5879,3.76943 -0.007,2.40887 -0.11265,2.98439 -0.84136,4.57729 -0.57384,1.25435 -1.35808,2.30765 -2.51722,3.3808 -0.92604,0.85735 -2.41381,1.90421 -3.30617,2.32636 -0.89235,0.42215 -2.23584,0.83778 -2.98554,0.92362 -0.74969,0.0858 -1.71496,0.0196 -2.14504,-0.14729 -0.43008,-0.16685 -1.91776,-1.68205 -3.30594,-3.3671 -1.45076,-1.76102 -2.81082,-3.13573 -3.19857,-3.23306 -0.42662,-0.10706 -0.93267,0.0281 -1.37664,0.36784 -0.38612,0.29542 -1.70278,1.75074 -2.92592,3.23402 -1.22314,1.4833 -2.55048,2.82107 -2.94965,2.97284 -0.39917,0.15176 -1.07618,0.26257 -1.50447,0.24624 -0.42829,-0.0164 -1.175993,-0.12486 -1.661568,-0.24119 z m -1.490869,-4.65967 c -0.23713,-1.19637 -0.45262,-3.67615 -0.478867,-5.5106 -0.02624,-1.83445 0.05445,-3.90723 0.179333,-4.60617 l 0.227054,-1.27079 -0.94825,0.18965 c -0.521537,0.1043 -1.117852,0.35925 -1.325144,0.56654 -0.215772,0.21577 -0.450414,1.4219 -0.548866,2.82134 -0.09528,1.35433 -0.01713,3.60851 0.175247,5.05473 0.19097,1.43565 0.501619,2.93657 0.690331,3.33537 0.188711,0.39879 0.792778,0.94958 1.342369,1.22399 0.549591,0.2744 1.02596,0.47017 1.058599,0.43504 0.03264,-0.0351 -0.134675,-1.04272 -0.371806,-2.2391 z m -13.999039,-8.39611 c -0.350634,-0.22182 -0.40663,-1.27555 -0.334986,-6.30376 0.04731,-3.32058 0.171511,-6.5251 0.275995,-7.12117 0.139149,-0.79383 0.455998,-1.26557 1.184385,-1.76339 0.977116,-0.66783 0.995959,-0.72016 1.083067,-3.0086 0.04876,-1.28093 0.279233,-3.23494 0.512166,-4.34227 0.232934,-1.10733 0.740441,-2.88645 1.127795,-3.95359 0.387353,-1.06715 1.14505,-2.67155 1.68377,-3.56534 0.53872,-0.89379 1.91263,-2.51351 3.053133,-3.59939 1.43717,-1.36833 2.816992,-2.33965 4.495496,-3.1646 1.33202,-0.65466 3.46597,-1.45765 4.742115,-1.78444 1.388,-0.35542 3.7769,-0.66165 5.94565,-0.76213 2.17959,-0.10098 4.66638,-0.0298 6.23569,0.17833 1.43566,0.19047 3.77785,0.73603 5.20486,1.21237 1.42701,0.47633 3.35476,1.32786 4.28389,1.89227 0.92912,0.56442 2.33213,1.65233 3.11778,2.41758 0.78565,0.76525 1.94244,2.18658 2.57063,3.15852 0.6282,0.97194 1.47332,2.59434 1.87805,3.60535 0.40473,1.011 0.94197,2.83596 1.19387,4.05545 0.25189,1.2195 0.45799,3.30811 0.45799,4.64137 v 2.42409 l 1.11991,0.62942 1.11991,0.62943 0.18109,2.39681 c 0.0996,1.31824 0.20043,4.43659 0.22407,6.92968 0.0236,2.49307 -0.0474,4.67919 -0.158,4.85803 -0.11053,0.17884 -0.52535,0.32517 -0.92183,0.32517 -0.39648,0 -1.5634,-0.21165 -2.59317,-0.47032 -1.49306,-0.37504 -1.8723,-0.58357 -1.8723,-1.02951 0,-0.30756 -0.18412,-0.91164 -0.40916,-1.34239 -0.22503,-0.43075 -0.78403,-1.13939 -1.24222,-1.57474 -0.45817,-0.43536 -1.61032,-1.05898 -2.56031,-1.38582 -0.94998,-0.32685 -2.96865,-0.8609 -4.48592,-1.18679 -2.11909,-0.45515 -4.29105,-0.63054 -9.36831,-0.75654 -4.46374,-0.11076 -7.47694,-0.0488 -9.28102,0.19079 -1.46926,0.19515 -3.911265,0.61863 -5.426683,0.94109 -1.515417,0.32245 -3.435088,0.84054 -4.265935,1.15131 -0.830847,0.31078 -1.838856,0.95512 -2.240021,1.43188 -0.401166,0.47675 -0.884215,1.38358 -1.073444,2.01517 -0.300655,1.00349 -0.493691,1.1871 -1.530394,1.45565 -0.652488,0.16903 -1.643142,0.42875 -2.201454,0.57716 -0.558312,0.14842 -1.08037,0.26859 -1.160128,0.26703 -0.07976,-0.002 -0.334471,-0.12268 -0.566027,-0.26916 z m 29.731316,-12.62198 c 0.53254,-0.40279 0.512,-0.42633 -0.37961,-0.43505 -0.51843,-0.005 -0.94261,-0.13974 -0.94261,-0.29926 0,-0.15952 0.39154,-0.29003 0.8701,-0.29003 0.52057,0 0.8701,-0.15146 0.8701,-0.37704 0,-0.20737 -0.15662,-0.53366 -0.34804,-0.72508 -0.19143,-0.19143 -0.62212,-0.34804 -0.95711,-0.34804 -0.33499,0 -0.76568,0.15661 -0.95711,0.34804 -0.19141,0.19142 -0.34803,0.60532 -0.34803,0.91977 0,0.31445 0.216,0.8104 0.47999,1.10212 0.26401,0.29171 0.6306,0.53039 0.81467,0.53039 0.18407,0 0.58801,-0.19162 0.89765,-0.42582 z m -1.32222,-1.6044 c 0,-0.15952 0.19578,-0.29004 0.43505,-0.29004 0.23928,0 0.43505,0.13052 0.43505,0.29004 0,0.15952 -0.19577,0.29003 -0.43505,0.29003 -0.23927,0 -0.43505,-0.13051 -0.43505,-0.29003 z m 4.66424,1.74019 c 0.49898,0 0.55634,-0.22427 0.55634,-2.17524 0,-1.74019 -0.087,-2.17524 -0.43504,-2.17524 -0.30157,0 -0.43506,0.30313 -0.43506,0.98796 0,0.84604 -0.0835,0.96611 -0.5816,0.83586 -0.31989,-0.0837 -0.77669,0.01 -1.01512,0.20768 -0.23843,0.19788 -0.4335,0.66076 -0.4335,1.02863 0,0.36787 0.2126,0.88146 0.47245,1.1413 0.25984,0.25985 0.66205,0.39967 0.89381,0.31074 0.23176,-0.0889 0.67173,-0.16169 0.97772,-0.16169 z m -1.27449,-0.76738 c -0.10966,-0.10966 -0.19939,-0.37342 -0.19939,-0.5861 0,-0.2127 0.2706,-0.38671 0.60133,-0.38671 0.40545,0 0.57078,0.1575 0.50755,0.48352 -0.0515,0.26594 -0.23244,0.52968 -0.40193,0.58611 -0.16949,0.0564 -0.39789,0.0128 -0.50756,-0.0968 z m 8.73359,0.70937 c 0.19143,-0.19141 0.34804,-0.85486 0.34804,-1.47433 0,-0.77115 -0.11432,-1.08876 -0.36254,-1.00727 -0.1994,0.0654 -0.40403,0.54105 -0.45474,1.05688 -0.0552,0.56185 -0.22965,0.89279 -0.43505,0.82543 -0.18856,-0.0618 -0.38375,-0.52658 -0.43373,-1.03272 -0.0557,-0.56445 -0.25199,-0.92027 -0.50756,-0.92027 -0.29188,0 -0.41667,0.34312 -0.41667,1.14572 0,0.78518 0.15972,1.23874 0.50756,1.44134 0.27916,0.16259 0.70985,0.29959 0.9571,0.30445 0.24726,0.005 0.60617,-0.14781 0.79759,-0.33923 z m 1.73789,-2.068 c 0.0704,-1.84754 0.009,-2.22447 -0.36254,-2.22447 -0.36609,0 -0.44725,0.42542 -0.44725,2.34443 0,1.74616 0.0925,2.31381 0.36254,2.22446 0.23764,-0.0786 0.39173,-0.88634 0.44725,-2.34442 z m 1.45016,0 c 0.0704,-1.84754 0.009,-2.22447 -0.36254,-2.22447 -0.36609,0 -0.44725,0.42542 -0.44725,2.34443 0,1.74616 0.0925,2.31381 0.36254,2.22446 0.23764,-0.0786 0.39173,-0.88634 0.44725,-2.34442 z m -18.19649,1.47343 0.0152,-0.65257 0.45521,0.65257 c 0.25037,0.35892 0.63506,0.65258 0.85488,0.65258 0.21982,0 0.39967,-0.0699 0.39967,-0.15522 0,-0.0854 -0.19871,-0.45849 -0.44157,-0.82916 -0.39543,-0.60349 -0.39543,-0.71225 0,-1.04042 0.24286,-0.20156 0.44157,-0.58543 0.44157,-0.85302 0,-0.26761 -0.15661,-0.64317 -0.34803,-0.83459 -0.19142,-0.19142 -0.84399,-0.34804 -1.45016,-0.34804 h -1.10213 v 2.03022 c 0,1.83688 0.0552,2.03023 0.58007,2.03023 0.40369,0 0.58469,-0.19843 0.59528,-0.65258 z m -0.0152,-2.24774 c 0,-0.37382 0.14687,-0.57944 0.36254,-0.50755 0.19939,0.0664 0.36253,0.29486 0.36253,0.50755 0,0.21269 -0.16314,0.44109 -0.36253,0.50756 -0.21567,0.0719 -0.36254,-0.13374 -0.36254,-0.50756 z m 12.29453,2.24875 c 0.234,-0.37319 0.22397,-0.65652 -0.0381,-1.07616 -0.19564,-0.31327 -0.27797,-0.77219 -0.18295,-1.0198 0.095,-0.24761 0.0117,-0.64432 -0.18523,-0.88156 -0.20423,-0.24608 -0.84106,-0.43136 -1.48261,-0.43136 h -1.12462 v 2.04612 2.04611 l 1.34794,-0.0884 c 0.89741,-0.0589 1.45411,-0.25771 1.66557,-0.59495 z m -2.14341,-1.35848 c 0,-1.08685 0.109,-1.47034 0.41792,-1.47034 0.22986,0 0.50922,0.14771 0.62079,0.32823 0.11156,0.18052 -0.0113,0.44804 -0.27292,0.59448 -0.26167,0.14644 -0.47576,0.37506 -0.47576,0.50804 0,0.13299 0.27478,0.31365 0.61062,0.40147 0.33584,0.0878 0.55401,0.33145 0.48484,0.54139 -0.0691,0.20993 -0.40922,0.42341 -0.75565,0.47438 -0.5758,0.0847 -0.62984,-0.0335 -0.62984,-1.37765 z m -0.93923,-3.4098 c -0.27729,-0.0726 -0.79935,-0.0752 -1.16013,-0.006 -0.36077,0.0694 -0.13389,0.12877 0.50418,0.13199 0.63807,0.003 0.93325,-0.0535 0.65595,-0.12613 z m -2.39615,-0.67082 c -0.51441,-0.56842 -0.50657,-0.58006 0.3901,-0.58006 0.50328,0 0.91505,-0.0458 0.91505,-0.10174 0,-0.056 -0.1486,-0.54539 -0.33021,-1.08763 -0.18161,-0.54223 -0.58683,-1.26987 -0.90048,-1.61698 -0.31365,-0.3471 -0.49907,-0.74632 -0.41203,-0.88714 0.087,-0.14082 -0.87408,0.24107 -2.1358,0.84863 -1.26171,0.60756 -2.42862,1.10466 -2.59313,1.10466 -0.1645,0 -0.29909,-0.10441 -0.29909,-0.23202 0,-0.12761 0.16205,-0.39409 0.36012,-0.59215 0.2868,-0.28679 0.27204,-0.41579 -0.0725,-0.63363 -0.23794,-0.15042 -0.56313,-0.27135 -0.72265,-0.26873 -0.15952,0.002 -0.0538,0.18388 0.23487,0.40277 0.33173,0.2515 0.41179,0.4679 0.21753,0.58796 -0.16906,0.10448 -0.30739,0.37804 -0.30739,0.6079 0,0.22986 0.1849,0.41794 0.41088,0.41794 0.22599,0 0.46607,0.16313 0.53353,0.36253 0.0674,0.1994 -0.27331,0.6562 -0.75726,1.01511 -0.48395,0.35892 -0.75667,0.65061 -0.60603,0.64821 0.15062,-0.002 0.79593,-0.19054 1.43399,-0.41809 0.63807,-0.22754 1.13659,-0.5246 1.10782,-0.66011 -0.0288,-0.13552 0.39662,-0.19399 0.94529,-0.12993 0.54868,0.064 1.06514,0.22573 1.14768,0.35929 0.0825,0.13355 -0.11792,0.19121 -0.44548,0.12813 -0.32756,-0.0631 -0.51911,0.009 -0.42568,0.16018 0.0934,0.15117 0.4155,0.27486 0.71571,0.27486 0.30021,0 0.63551,-0.1451 0.74512,-0.32246 0.10961,-0.17735 0.0194,-0.43638 -0.20041,-0.57562 -0.31309,-0.1983 -0.28577,-0.25412 0.12609,-0.2576 0.35171,-0.003 0.49575,0.17285 0.43507,0.53106 -0.0499,0.29453 0.0884,0.75134 0.30732,1.01512 0.21891,0.26378 0.46753,0.4796 0.55248,0.4796 0.0849,0 -0.0818,-0.26103 -0.3705,-0.58006 z m 3.33538,0.43505 c 0,-0.0797 -0.0653,-0.14502 -0.14502,-0.14502 -0.0797,0 -0.14502,0.0653 -0.14502,0.14502 0,0.0797 0.0653,0.14501 0.14502,0.14501 0.0798,0 0.14502,-0.0653 0.14502,-0.14501 z m 1.63606,-0.72509 c 0.35747,0 0.72452,-0.12063 0.81564,-0.26807 0.0911,-0.14745 -0.0643,-0.32809 -0.34542,-0.40141 -0.28111,-0.0733 -0.0217,-0.14846 0.57651,-0.16697 0.59819,-0.0185 1.08762,0.0762 1.08762,0.21048 0,0.13427 0.50457,0.3953 1.12127,0.58006 0.6167,0.18477 1.21489,0.33595 1.32931,0.33595 0.11443,0 0.16454,-0.13052 0.11137,-0.29004 -0.0532,-0.15951 -0.22719,-0.31333 -0.38671,-0.34182 -0.15952,-0.0284 -0.47677,-0.23853 -0.705,-0.46676 -0.35994,-0.35994 -0.3321,-0.47807 0.20992,-0.89081 0.44504,-0.33889 0.54838,-0.59826 0.35906,-0.90116 -0.17065,-0.27303 -0.14197,-0.57552 0.0801,-0.84476 0.27761,-0.33657 0.26,-0.38978 -0.0891,-0.26934 -0.27184,0.0938 -0.40373,0.43789 -0.35156,0.91726 0.0459,0.42195 0.0145,0.76717 -0.07,0.76717 -0.0844,0 -1.10082,-0.41456 -2.25872,-0.92125 -1.15791,-0.50667 -2.36631,-1.12662 -2.68535,-1.37764 -0.5659,-0.44527 -0.56762,-0.44164 -0.0701,0.14908 0.48927,0.581 0.48537,0.6277 -0.0964,1.15424 -0.3335,0.30181 -0.79136,0.99151 -1.01747,1.53266 -0.2261,0.54115 -0.4111,1.03323 -0.4111,1.09351 0,0.0603 0.47278,0.1096 1.05062,0.1096 0.95356,0 1.01514,0.0469 0.66657,0.50755 -0.32674,0.43179 -0.32338,0.45344 0.0225,0.14502 0.22361,-0.1994 0.69904,-0.36255 1.05652,-0.36255 z m -0.91099,-0.87009 c -0.0986,-0.15952 0.0319,-0.29004 0.29004,-0.29004 0.2581,0 0.38861,0.13052 0.29003,0.29004 -0.0986,0.15952 -0.2291,0.29003 -0.29003,0.29003 -0.0609,0 -0.19145,-0.13051 -0.29004,-0.29003 z m -0.72507,-0.72508 c 0,-0.0798 0.0653,-0.14501 0.14501,-0.14501 0.0798,0 0.14502,0.0653 0.14502,0.14501 0,0.0797 -0.0653,0.14502 -0.14502,0.14502 -0.0797,0 -0.14501,-0.0653 -0.14501,-0.14502 z m 0.87009,-1.16013 c 0,-0.0797 0.0653,-0.14501 0.14502,-0.14501 0.0797,0 0.14501,0.0653 0.14501,0.14501 0,0.0797 -0.0653,0.14501 -0.14501,0.14501 -0.0798,0 -0.14502,-0.0653 -0.14502,-0.14501 z m -3.77042,-1.74019 c 0,-0.0797 -0.0653,-0.14502 -0.14501,-0.14502 -0.0798,0 -0.14502,0.0653 -0.14502,0.14502 0,0.0798 0.0653,0.14502 0.14502,0.14502 0.0797,0 0.14501,-0.0653 0.14501,-0.14502 z m 0.77342,-0.33838 c -0.10634,-0.10634 -0.28036,-0.10634 -0.38671,0 -0.10634,0.10636 -0.0193,0.19336 0.19336,0.19336 0.21269,0 0.2997,-0.087 0.19335,-0.19336 z m 1.75833,0.0182 c -0.0964,-0.0964 -0.34654,-0.10667 -0.5559,-0.0229 -0.23137,0.0926 -0.16264,0.16131 0.17522,0.17523 0.30575,0.0126 0.47705,-0.056 0.38068,-0.15234 z M 73.815621,202.7715 c -3.429629,-0.77541 -11.260494,-2.53191 -17.401921,-3.90335 -7.982291,-1.78251 -11.674207,-2.73704 -12.947721,-3.34757 -0.97982,-0.46973 -2.244665,-1.36673 -2.810768,-1.99334 -0.566104,-0.62661 -1.186835,-1.66517 -1.379404,-2.30791 -0.297073,-0.99154 -0.273137,-1.3702 0.157969,-2.49903 0.342695,-0.89733 0.852381,-1.55671 1.565717,-2.02553 0.581692,-0.3823 1.644937,-0.82883 2.362766,-0.99229 0.71783,-0.16345 1.788959,-0.30037 2.380287,-0.30427 0.591329,-0.004 2.810074,0.43974 4.930544,0.98586 2.120471,0.54612 6.857233,1.78588 10.526138,2.75502 3.668905,0.96914 9.763392,2.58173 13.543305,3.58353 3.779912,1.0018 6.957962,1.90685 7.062332,2.01122 0.104371,0.10437 0.09474,2.28668 -0.02141,4.84956 l -0.211172,4.6598 -0.760488,-0.0309 c -0.418269,-0.017 -3.566549,-0.66536 -6.996177,-1.44077 z m 62.514549,1.10427 c -0.0608,-0.1967 -0.19128,-2.40688 -0.29012,-4.91149 l -0.17972,-4.55385 1.09869,-0.28554 c 0.60428,-0.15704 7.82019,-2.0843 16.03534,-4.28279 12.88037,-3.44697 15.23623,-3.99754 17.11278,-3.99938 1.73463,-0.002 2.47008,0.14353 3.62498,0.71575 0.82032,0.40644 1.73212,1.14538 2.10184,1.70335 0.40519,0.61151 0.65299,1.42732 0.65299,2.14976 0,0.72148 -0.27834,1.63922 -0.73188,2.41313 -0.40254,0.68688 -1.3147,1.64985 -2.02704,2.13996 -0.71234,0.4901 -1.82411,1.07771 -2.4706,1.30581 -0.6465,0.22809 -8.57669,2.05546 -17.62264,4.06082 -9.04594,2.00536 -16.61526,3.70371 -16.82069,3.77412 -0.20544,0.0704 -0.42321,-0.033 -0.48393,-0.22965 z M 63.882014,183.44075 c -1.275138,-0.0693 -1.957338,-0.22818 -1.956632,-0.45568 5.97e-4,-0.19211 0.253319,-0.76296 0.561606,-1.26855 0.308287,-0.5056 1.350389,-1.45565 2.315781,-2.11123 1.067545,-0.72496 1.824103,-1.46628 1.93097,-1.89207 0.09664,-0.38505 0.09047,-0.83802 -0.01372,-1.00661 -0.104192,-0.16858 -0.481919,-0.30652 -0.839395,-0.30652 -0.357476,0 -0.806574,0.15662 -0.997995,0.34805 -0.191421,0.19141 -0.348038,0.58296 -0.348038,0.87009 0,0.41847 -0.237729,0.52206 -1.198077,0.52206 h -1.19808 l 0.16893,-1.04099 c 0.09291,-0.57255 0.338389,-1.24534 0.545504,-1.4951 0.207116,-0.24974 0.796555,-0.62964 1.309864,-0.84421 0.513308,-0.21457 1.261125,-0.39012 1.661815,-0.39012 0.400689,0 1.235501,0.20286 1.855137,0.45078 0.64204,0.25689 1.268298,0.76175 1.456029,1.17377 0.18118,0.39766 0.329418,1.02555 0.329418,1.39532 0,0.36977 -0.262858,1.00649 -0.584129,1.41492 -0.321272,0.40843 -1.267501,1.14098 -2.102732,1.6279 l -1.518603,0.88528 2.102732,0.007 2.102732,0.007 v 1.01511 c 0,0.5583 -0.09789,1.02367 -0.217524,1.03413 -0.119638,0.0104 -0.935353,0.0524 -1.8127,0.0931 -0.877347,0.0408 -2.476148,0.0262 -3.552892,-0.0323 z m 7.903373,-4.43037 v -4.64051 h 1.450159 1.45016 l 0.0092,1.52267 0.0092,1.52267 1.36842,-1.52842 1.368421,-1.52842 1.731113,0.006 1.731114,0.006 -1.679693,1.6974 -1.679691,1.6974 1.636219,2.53635 c 0.899922,1.395 1.70646,2.71939 1.79231,2.94311 0.122557,0.31938 -0.19551,0.40677 -1.48062,0.40677 H 77.85499 l -1.185579,-1.89089 c -0.95253,-1.51919 -1.264029,-1.82577 -1.584674,-1.55966 -0.248233,0.20601 -0.399094,0.92079 -0.399094,1.89088 v 1.55967 h -1.45016 -1.45016 z m 64.967173,3.8877 c 0,-0.41405 0.26204,-1.12082 0.58231,-1.57059 0.32027,-0.44979 1.43763,-1.35797 2.48302,-2.0182 1.66009,-1.04844 1.88928,-1.29939 1.81045,-1.98229 -0.0649,-0.56164 -0.27857,-0.80859 -0.75879,-0.87666 -0.3677,-0.0521 -0.85713,0.0617 -1.08762,0.25304 -0.2305,0.19129 -0.41909,0.59285 -0.41909,0.89236 0,0.45203 -0.22172,0.54455 -1.30514,0.54455 -1.00265,0 -1.30514,-0.10748 -1.30514,-0.46373 0,-0.25504 0.20585,-0.89753 0.45746,-1.42774 0.26072,-0.54944 0.87205,-1.16076 1.42148,-1.42149 0.53022,-0.2516 1.43792,-0.45746 2.01713,-0.45746 0.5792,0 1.4952,0.18472 2.03555,0.41049 0.54035,0.22578 1.12347,0.67399 1.29583,0.99605 0.17236,0.32206 0.31338,1.02189 0.31338,1.5552 0,0.5333 -0.20503,1.26236 -0.45561,1.62012 -0.25058,0.35776 -1.13155,1.03815 -1.95771,1.51197 l -1.50212,0.86149 2.10274,0.002 2.10273,0.002 v 1.16013 1.16013 h -3.91543 -3.91543 z m 10.21388,0.31632 c -0.65483,-0.28452 -1.12854,-0.80198 -1.5163,-1.65634 -0.31017,-0.68339 -0.56395,-1.82985 -0.56395,-2.54768 0,-0.71783 0.25398,-1.86474 0.56441,-2.54869 0.40612,-0.89481 0.84908,-1.3625 1.57949,-1.66769 0.55829,-0.23327 1.37819,-0.42364 1.82199,-0.42304 0.4438,5.9e-4 1.22474,0.25585 1.73542,0.56723 0.51069,0.31139 1.14369,0.98223 1.40666,1.49076 0.28045,0.54234 0.47814,1.60961 0.47814,2.58143 0,0.97182 -0.19769,2.0391 -0.47814,2.58143 -0.26297,0.50853 -0.89597,1.17937 -1.40666,1.49076 -0.51068,0.31138 -1.32006,0.56154 -1.79861,0.55589 -0.47856,-0.006 -1.29866,-0.19648 -1.82245,-0.42406 z m 2.82735,-2.15473 c 0.16513,-0.30854 0.30024,-1.26245 0.30024,-2.1198 0,-0.85735 -0.17045,-1.79192 -0.37879,-2.07684 -0.23161,-0.31675 -0.65138,-0.47915 -1.08036,-0.41798 -0.38587,0.055 -0.87349,0.42635 -1.08362,0.82514 -0.22116,0.4197 -0.33414,1.30123 -0.26829,2.09311 0.0626,0.75242 0.27985,1.56813 0.48282,1.8127 0.20297,0.24457 0.67476,0.44467 1.0484,0.44467 0.37483,0 0.81395,-0.25147 0.9796,-0.561 z m 43.25974,-0.49028 c -2.45341,-1.17384 -5.09362,-2.6169 -5.86715,-3.2068 -0.77353,-0.5899 -2.04707,-1.8635 -2.83009,-2.83022 -0.78303,-0.96672 -1.88867,-2.60602 -2.457,-3.64288 -0.56833,-1.03686 -1.42628,-3.0889 -1.90655,-4.56007 -0.48028,-1.47117 -1.08304,-4.19207 -1.33948,-6.04643 -0.25644,-1.85438 -0.39687,-3.44098 -0.31205,-3.52579 0.0848,-0.0848 2.04141,0.45095 4.34798,1.19059 3.9004,1.25072 4.20524,1.40044 4.35765,2.1402 0.0901,0.43746 0.42995,2.53772 0.75515,4.66723 0.3252,2.12952 0.78639,4.24915 1.02485,4.71029 0.23847,0.46115 0.77297,1.06082 1.18779,1.33262 0.71714,0.4699 0.77386,0.46731 1.15409,-0.0527 0.21994,-0.30078 0.39989,-1.12013 0.39989,-1.82077 0,-0.70064 -0.27122,-2.33615 -0.60271,-3.63446 -0.33149,-1.29833 -0.95144,-3.07752 -1.37766,-3.95378 -0.42621,-0.87626 -1.54191,-2.41506 -2.47933,-3.41957 -0.93741,-1.0045 -2.02965,-1.90801 -2.4272,-2.00778 -0.39756,-0.0998 -2.31734,-1.76326 -4.26619,-3.69662 l -3.54336,-3.51518 -0.77765,-6.66835 c -0.42771,-3.66759 -0.8272,-7.14993 -0.88775,-7.73852 -0.10227,-0.99407 0.01,-1.17452 1.57725,-2.53778 l 1.68736,-1.46761 h 3.74836 c 3.38003,0 3.79995,0.057 4.27332,0.58006 0.28872,0.31903 0.64771,0.58006 0.79776,0.58006 0.15005,0 0.64868,-0.26764 1.10807,-0.59475 0.65622,-0.46727 1.19107,-0.57605 2.49536,-0.50755 l 1.66011,0.0872 1.23563,6.96077 c 0.67958,3.82842 1.24088,7.25443 1.24731,7.61334 0.007,0.35891 -0.0971,0.65257 -0.22999,0.65257 -0.13293,0 -0.32602,-0.0843 -0.42909,-0.18739 -0.10306,-0.10307 -0.54899,-0.21674 -0.99094,-0.25261 -0.44196,-0.0358 -2.00831,-0.23077 -3.48079,-0.4331 l -2.67724,-0.36788 -0.17921,-1.04719 c -0.0986,-0.57596 -0.36086,-1.95594 -0.58289,-3.06663 -0.23209,-1.16105 -0.64113,-2.25689 -0.96232,-2.57807 -0.31224,-0.31224 -0.75737,-0.48239 -1.0092,-0.38576 -0.24781,0.0951 -0.54042,0.53092 -0.65024,0.9685 -0.10983,0.43759 -0.0389,1.58518 0.15773,2.5502 0.19658,0.96503 0.67904,2.30834 1.07214,2.98515 0.3931,0.6768 2.91971,3.43973 5.61467,6.13984 4.46019,4.46867 5.00451,5.12612 6.06494,7.32538 0.64075,1.32887 1.55773,3.59377 2.03774,5.03313 0.48001,1.43935 1.47518,5.59856 2.21151,9.24267 l 1.33876,6.62567 -0.81913,0.86318 c -0.45052,0.47475 -1.53696,1.48613 -2.4143,2.24752 l -1.59518,1.38434 z m -178.897925,0.48296 c -0.510688,-0.31139 -1.13282,-0.96122 -1.382515,-1.44408 -0.249696,-0.48286 -0.53169,-1.44479 -0.626654,-2.13763 -0.09496,-0.69283 0.04202,-2.62017 0.304399,-4.28297 0.262383,-1.66279 0.783338,-4.37624 1.157678,-6.02987 0.37434,-1.65364 0.826366,-3.0967 1.004504,-3.20679 0.178137,-0.1101 2.155991,-0.83007 4.39523,-1.59994 2.239239,-0.76987 4.121271,-1.34979 4.182293,-1.28871 0.06102,0.0611 -0.268542,2.06877 -0.732366,4.46154 -0.463823,2.39275 -0.844442,4.63325 -0.84582,4.97888 -0.0014,0.34562 0.160638,0.68663 0.360035,0.75779 0.199397,0.0712 0.720174,-0.0511 1.157282,-0.27184 0.437108,-0.22068 1.047476,-0.89662 1.356373,-1.50211 0.308897,-0.60549 0.766978,-2.1834 1.017958,-3.50645 0.25098,-1.32306 0.456327,-3.44149 0.456327,-4.70763 0,-2.05711 -0.07388,-2.37003 -0.694314,-2.94079 -0.381872,-0.35129 -1.197587,-0.95632 -1.8127,-1.3445 -0.615112,-0.38817 -1.836216,-1.52263 -2.713563,-2.52102 -1.07988,-1.22887 -1.705308,-2.24344 -1.936107,-3.14077 -0.242661,-0.94346 -0.270585,-2.47397 -0.09688,-5.30984 0.134229,-2.19137 0.457907,-4.89792 0.719285,-6.01455 0.261377,-1.11662 0.596647,-2.4936 0.745045,-3.05996 0.204033,-0.7787 0.881213,-1.55651 2.777594,-3.19036 1.379279,-1.18832 2.911123,-2.45426 3.404097,-2.81317 0.779649,-0.56763 1.253586,-0.65257 3.641111,-0.65257 2.396747,0 2.827724,0.0779 3.398789,0.61439 l 0.653992,0.61439 0.99411,-0.61439 c 0.728511,-0.45025 1.46733,-0.61439 2.765326,-0.61439 h 1.771215 l -0.143196,0.79758 c -0.07876,0.43868 -0.601056,3.33525 -1.160663,6.43683 -0.559605,3.10159 -1.060806,5.68258 -1.113779,5.73555 -0.05297,0.053 -1.750244,0.30641 -3.771714,0.5632 -2.021469,0.25679 -3.760947,0.38133 -3.865506,0.27678 -0.104559,-0.10456 0.04419,-1.34425 0.330557,-2.75488 0.404776,-1.99391 0.44684,-2.70271 0.188985,-3.18452 -0.182423,-0.34086 -0.500108,-0.61975 -0.705966,-0.61975 -0.205857,0 -0.65801,0.30201 -1.004782,0.67114 -0.372984,0.39702 -0.760852,1.37428 -0.949667,2.39276 -0.175545,0.9469 -0.261952,2.41645 -0.192016,3.26567 0.109376,1.32813 0.285796,1.70198 1.261651,2.67354 0.623971,0.62123 2.043737,1.75361 3.155035,2.51641 1.111297,0.7628 2.311992,1.82064 2.668211,2.35076 0.356219,0.53012 0.739199,1.57421 0.851068,2.32021 0.111869,0.74599 0.04219,3.37934 -0.154829,5.8519 -0.197024,2.47255 -0.479738,5.39377 -0.628252,6.49161 -0.260998,1.92932 -0.355733,2.10388 -2.83338,5.22057 -1.409845,1.77349 -2.91486,3.76218 -3.344478,4.41931 -0.644671,0.98609 -1.196752,1.37301 -3.160387,2.21496 -1.308594,0.56108 -3.684406,1.62159 -5.279583,2.35668 -1.595176,0.7351 -3.291863,1.33668 -3.770416,1.33687 -0.478552,1.7e-4 -1.287931,-0.25446 -1.798619,-0.56584 z m 159.721045,-7.7382 -3.04533,-0.99477 -2.24775,-4.17582 c -1.26734,-2.35444 -2.24945,-4.53222 -2.25165,-4.99292 -0.002,-0.44941 -0.32842,-3.41647 -0.72507,-6.59348 -0.39666,-3.17702 -0.72119,-5.95044 -0.72119,-6.16318 0,-0.28308 -0.5103,-0.3868 -1.90298,-0.3868 h -1.90298 l 0.16206,1.23264 c 0.0891,0.67795 0.36585,3.18492 0.61492,5.57104 0.24908,2.38613 0.5471,4.80065 0.66227,5.36559 0.16915,0.82981 0.38868,1.08048 1.14247,1.30453 0.5132,0.15254 0.98989,0.47883 1.05931,0.72509 0.0694,0.24624 0.27774,1.66443 0.46295,3.15152 0.1852,1.48709 0.25937,2.78116 0.16482,2.87571 -0.0946,0.0945 -2.61927,-0.58109 -5.61046,-1.50141 -2.9912,-0.92034 -5.84654,-1.79501 -6.3452,-1.94373 -0.81023,-0.24166 -0.9247,-0.41578 -1.07647,-1.63743 -0.0934,-0.75186 -0.258,-2.19202 -0.36578,-3.20034 l -0.19595,-1.8333 1.0549,0.1979 c 0.97131,0.18221 1.05487,0.14363 1.05441,-0.48695 -2.8e-4,-0.37667 -0.25395,-3.81719 -0.5637,-7.64562 -0.30976,-3.82842 -0.72061,-9.14688 -0.913,-11.8188 -0.33894,-4.70721 -0.36962,-4.85804 -0.9884,-4.85804 -0.59528,0 -0.65062,-0.17029 -0.81578,-2.51063 -0.0974,-1.38085 -0.10697,-2.62422 -0.0212,-2.76304 0.0858,-0.13882 1.54917,-0.18061 3.25194,-0.0929 1.70277,0.0877 5.37995,0.30232 8.17151,0.47682 l 5.07556,0.31728 1.47402,0.95174 1.47403,0.95175 1.06867,7.64267 c 0.58777,4.20347 1.06646,7.74162 1.06376,7.86254 -0.002,0.12093 -0.52698,0.42877 -1.16505,0.68407 -0.63807,0.2553 -1.16012,0.5438 -1.16012,0.64111 0,0.0973 0.66227,0.84751 1.47172,1.66714 l 1.47173,1.49024 0.41551,3.59444 c 0.22853,1.97695 0.61723,4.96485 0.86376,6.63978 0.24653,1.67494 0.64017,3.339 0.87475,3.69791 0.23458,0.35892 0.59862,0.65257 0.80898,0.65257 0.24932,0 0.60956,1.03499 1.03472,2.97283 0.35873,1.63506 0.71446,3.20123 0.79051,3.48039 0.0828,0.30383 -0.0151,0.49532 -0.24381,0.47707 -0.21015,-0.0168 -1.75249,-0.47812 -3.42743,-1.02524 z m -10.70676,-29.44326 c 0.20882,-0.3902 0.28503,-1.48658 0.20245,-2.91291 -0.0977,-1.68827 -0.28519,-2.49278 -0.71588,-3.07222 -0.32091,-0.43175 -0.92948,-0.8263 -1.35237,-0.87678 -0.69657,-0.0831 -0.76842,-0.002 -0.76376,0.8701 0.002,0.52903 0.12752,2.12519 0.27709,3.54704 0.16113,1.53186 0.42491,2.68222 0.64741,2.82337 0.20652,0.13101 0.5993,0.2402 0.87285,0.24264 0.27354,0.002 0.64803,-0.27711 0.83221,-0.62124 z M 41.448348,170.04681 c -0.653851,-0.29694 -1.449604,-0.91402 -1.768339,-1.37127 -0.318735,-0.45727 -0.729995,-1.27504 -0.913911,-1.81727 -0.183916,-0.54224 -0.334393,-1.69034 -0.334393,-2.55134 0,-0.861 0.847363,-6.51699 1.883028,-12.56887 1.035666,-6.05188 2.017018,-11.6013 2.180783,-12.33205 0.163765,-0.73076 0.673059,-2.07044 1.131764,-2.97708 0.458705,-0.90663 1.374453,-2.26104 2.034995,-3.0098 0.687296,-0.77907 1.909884,-1.70947 2.858357,-2.17523 1.509978,-0.7415 1.97978,-0.82056 5.282769,-0.88903 l 3.6254,-0.0751 2.134726,2.32647 2.134725,2.32648 -1.205748,9.34996 c -0.663162,5.14247 -1.374673,11.00402 -1.581135,13.02566 l -0.375386,3.67571 -1.814704,1.97991 c -0.998088,1.08896 -2.356576,2.72514 -3.018863,3.63597 -0.662287,0.91084 -1.39993,1.73761 -1.639206,1.83727 -0.239277,0.0997 -1.848721,0.62694 -3.576543,1.17175 -1.74344,0.54973 -3.744064,0.98772 -4.495496,0.98418 -0.744701,-0.003 -1.888971,-0.24932 -2.542823,-0.54627 z m 7.440574,-8.15691 c 0.306898,-0.16425 0.755261,-0.6801 0.996362,-1.14634 0.241102,-0.46624 0.965666,-4.47569 1.610142,-8.90989 0.644477,-4.43419 1.361639,-9.2368 1.593694,-10.67246 0.232055,-1.43566 0.422442,-2.96672 0.423083,-3.40235 9.05e-4,-0.60681 -0.171157,-0.83532 -0.7356,-0.97698 -0.497264,-0.12481 -0.917035,-0.0218 -1.291315,0.31694 -0.305002,0.27602 -0.689688,1.17246 -0.854858,1.99209 -0.16517,0.81963 -0.95448,5.76087 -1.754021,10.98054 -0.799541,5.21966 -1.453711,9.99431 -1.453711,10.61033 0,0.61602 0.08701,1.20705 0.193354,1.31339 0.106345,0.10635 0.310697,0.19335 0.454116,0.19335 0.143417,0 0.511858,-0.13438 0.818754,-0.29862 z m 95.984528,3.27468 c -0.55831,-0.0641 -3.17233,-0.54985 -5.80893,-1.0794 -2.6366,-0.52956 -6.45891,-1.20183 -8.49402,-1.49393 -3.26123,-0.46809 -3.71446,-0.60091 -3.82039,-1.11948 -0.0661,-0.32361 -0.16845,-1.73039 -0.22745,-3.12617 l -0.10727,-2.53778 h 0.94066 0.94067 l -0.16492,-10.51366 c -0.11256,-7.17606 -0.26656,-10.5813 -0.4851,-10.72674 -0.1761,-0.1172 -0.61384,-0.21508 -0.97276,-0.21753 -0.61834,-0.004 -0.65257,-0.11854 -0.65257,-2.17967 v -2.17525 h 10.25138 10.25138 l 0.1886,3.69791 c 0.10372,2.03385 0.18943,4.35049 0.19045,5.14807 l 0.002,1.45016 -2.39345,-0.0786 c -1.31639,-0.0432 -2.68062,-0.14199 -3.0316,-0.21943 -0.55359,-0.12214 -0.64967,-0.36154 -0.72508,-1.80658 l -0.0869,-1.66578 -2.10692,-0.0853 c -1.70381,-0.069 -2.14049,0.002 -2.28235,0.37186 -0.0965,0.25143 -0.062,1.72548 0.0767,3.27564 l 0.25213,2.8185 2.64672,0.25404 2.64672,0.25403 0.17857,1.48616 c 0.0982,0.81738 0.17971,2.16809 0.18109,3.00157 l 0.002,1.51542 -0.79759,-0.14166 c -0.43868,-0.0779 -1.77645,-0.25369 -2.97283,-0.39062 -1.19638,-0.13694 -2.21894,-0.21113 -2.27235,-0.16486 -0.0534,0.0463 -0.004,1.84378 0.11012,3.9945 0.11398,2.15073 0.28819,4.0357 0.38714,4.18884 0.099,0.15314 1.25925,0.47572 2.57843,0.71683 1.31919,0.24113 2.44847,0.35717 2.50951,0.25789 0.0611,-0.0993 -0.007,-1.34394 -0.1515,-2.76591 -0.14436,-1.42196 -0.20387,-2.64399 -0.13225,-2.71562 0.0716,-0.0716 1.4401,0.0999 3.04107,0.38109 l 2.91083,0.5113 0.13866,0.89917 c 0.0763,0.49454 0.27429,2.16131 0.44005,3.70391 0.16576,1.54261 0.30138,3.26177 0.30138,3.82038 0,0.69969 -0.29323,1.39902 -0.94261,2.24805 -0.51843,0.67783 -1.07311,1.2533 -1.23263,1.27883 -0.15952,0.0256 -0.74683,-0.006 -1.30515,-0.0701 z m -79.403122,-2.84257 -2.109593,-2.43876 0.713499,-4.28546 c 0.392424,-2.35701 1.118635,-7.61358 1.613801,-11.68128 0.495166,-4.0677 0.970636,-7.75473 1.056599,-8.19341 0.147224,-0.75128 0.09571,-0.79759 -0.887385,-0.79759 -0.929068,0 -1.028825,-0.0717 -0.908393,-0.65257 0.07441,-0.35891 0.216802,-1.40303 0.316428,-2.32025 l 0.181137,-1.66768 h 5.439507 5.439508 l -0.105551,0.9426 c -0.05805,0.51843 -0.17396,1.49729 -0.257572,2.17524 -0.132572,1.07494 -0.243305,1.23264 -0.865547,1.23264 -0.466325,0 -0.807391,0.22608 -0.984456,0.65257 -0.149011,0.35891 -0.66723,4.37223 -1.151598,8.91848 -0.484368,4.54625 -0.955772,8.94642 -1.047563,9.77815 -0.155239,1.40662 -0.119954,1.52314 0.505244,1.66853 0.369676,0.086 1.324709,-0.0148 2.122297,-0.22402 l 1.450161,-0.38035 0.258833,-2.78634 0.258834,-2.78634 0.901294,-0.15789 c 0.495712,-0.0868 1.737677,-0.24759 2.759922,-0.35722 l 1.858628,-0.19932 -0.196465,3.47634 -0.196464,3.47634 -1.753042,3.30956 c -0.964173,1.82026 -1.878445,3.4367 -2.031715,3.5921 -0.153269,0.1554 -2.200604,0.63049 -4.549633,1.05575 -2.349028,0.42527 -4.597247,0.84425 -4.996041,0.93107 -0.625467,0.13618 -1.0149,-0.17718 -2.834674,-2.28089 z m 19.366499,-3.17882 c 0,-2.50823 0.04914,-2.7553 0.548014,-2.7553 0.497205,0 0.56557,-0.32942 0.737343,-3.5529 0.104131,-1.95409 0.380394,-6.16318 0.613919,-9.35353 0.233524,-3.19035 0.493531,-6.42058 0.577791,-7.17829 l 0.1532,-1.37766 h -1.21198 -1.21198 l 0.166637,-2.20333 c 0.09165,-1.21184 0.21413,-2.25083 0.272176,-2.30887 0.05804,-0.0581 3.6521,-0.122 7.986788,-0.14212 l 7.881255,-0.0366 1.92292,1.54785 c 1.05761,0.85133 2.21375,1.8089 2.5692,2.12793 l 0.64628,0.58006 -0.17048,10.44116 c -0.16457,10.07911 -0.1935,10.49143 -0.83453,11.8913 -0.36523,0.79759 -1.07798,1.87791 -1.58389,2.40072 -0.54447,0.56264 -1.50676,1.12485 -2.35804,1.37765 -0.79102,0.23491 -2.556521,0.42883 -3.923348,0.43093 -1.366826,0.002 -4.703884,0.1952 -7.415683,0.4291 -2.711799,0.23391 -5.02843,0.42796 -5.148068,0.43122 -0.119638,0.003 -0.217524,-1.23394 -0.217524,-2.74935 z m 11.675011,-6.17104 c 0.279829,-0.24574 0.626196,-0.9155 0.769705,-1.48836 0.143509,-0.57285 0.345919,-4.13356 0.449801,-7.91266 l 0.188876,-6.87111 -0.726796,-0.47622 c -0.399737,-0.26192 -0.961613,-0.43132 -1.248612,-0.37645 -0.429497,0.0821 -0.557114,0.5097 -0.721326,2.41678 -0.10973,1.27436 -0.33477,5.1736 -0.50009,8.66499 -0.16532,3.49138 -0.227701,6.46589 -0.138623,6.61002 0.08908,0.14413 0.444632,0.17605 0.790122,0.071 0.345491,-0.10511 0.857115,-0.39218 1.136943,-0.63792 z m 18.633332,8.62027 c -2.07372,-0.11432 -4.12933,-0.22274 -4.568,-0.24092 l -0.79759,-0.033 v -2.90033 -2.90031 h 1.01511 1.01511 l 8.2e-4,-6.3082 c 5.9e-4,-3.46951 0.0857,-8.15896 0.18922,-10.42101 l 0.18815,-4.11281 -1.1294,-0.0927 c -0.83246,-0.0683 -1.15663,-0.23615 -1.23296,-0.63847 -0.057,-0.30021 -0.016,-1.24643 0.091,-2.10273 l 0.19453,-1.55691 h 6.06979 6.06981 v 2.17524 2.17524 h -0.97663 -0.97663 l -0.17364,5.58312 c -0.0955,3.07071 -0.0802,7.80186 0.034,10.51366 l 0.20767,4.93054 1.04788,0.0876 1.04789,0.0876 0.18475,1.76759 c 0.10161,0.97218 0.18475,2.33577 0.18475,3.03021 v 1.26259 l -1.95772,-0.0491 c -1.07674,-0.027 -3.6544,-0.14265 -5.72813,-0.25696 z m -11.16623,-40.49149 c -1.83446,-1.03045 -3.64624,-2.159 -4.026201,-2.50791 -0.379958,-0.34891 -0.931778,-1.15643 -1.226266,-1.79451 -0.477613,-1.03484 -0.536122,-1.99583 -0.541804,-8.89893 -0.0058,-7.1207 0.03417,-7.75129 0.501187,-7.89495 0.279155,-0.08587 2.467244,-0.603896 4.862414,-1.151169 l 4.35485,-0.995044 4.20109,0.976198 c 2.3106,0.536908 4.49475,1.048628 4.85366,1.137155 l 0.65258,0.16096 -0.007,7.75283 c -0.006,6.91674 -0.0641,7.87794 -0.54181,8.91295 -0.29449,0.63808 -0.84631,1.44276 -1.22626,1.78819 -0.37996,0.34543 -2.257,1.48723 -4.17122,2.53733 -1.91421,1.0501 -3.67615,1.89604 -3.91543,1.87985 -0.23928,-0.0162 -1.93597,-0.87251 -3.77042,-1.90295 z m 6.24445,-8.0519 c 0.40821,-0.26748 0.8731,-0.83058 1.03308,-1.25136 0.23442,-0.61656 0.17688,-0.91921 -0.29646,-1.55943 -0.52299,-0.7074 -0.54389,-0.87809 -0.19081,-1.55865 0.21808,-0.42035 0.32696,-1.03021 0.24196,-1.35525 -0.085,-0.32504 -0.56002,-0.84599 -1.05561,-1.15767 -0.68061,-0.42804 -1.27248,-0.53924 -2.41922,-0.45453 -0.93222,0.0689 -1.7438,0.31632 -2.10274,0.64116 -0.35,0.31675 -0.58455,0.89502 -0.58455,1.44117 0,0.50168 0.16313,1.08508 0.36254,1.29645 0.29042,0.30785 0.2867,0.41197 -0.0187,0.52347 -0.2097,0.0765 -0.50926,0.47577 -0.66567,0.88717 -0.19317,0.50807 -0.18102,0.99753 0.0379,1.52599 0.17725,0.42789 0.60731,0.91641 0.95571,1.08558 0.34839,0.16918 0.82921,0.37899 1.06849,0.46624 0.23928,0.0872 0.98785,0.11303 1.6635,0.0573 0.67564,-0.0557 1.56244,-0.32017 1.97066,-0.58764 z m -3.33196,-1.45643 c -0.30429,-0.36663 -0.30429,-0.53278 0,-0.89942 0.20769,-0.25025 0.70583,-0.41105 1.12314,-0.36254 0.58329,0.0678 0.7499,0.24826 0.7499,0.81225 0,0.56399 -0.16661,0.74445 -0.7499,0.81225 -0.41731,0.0485 -0.91545,-0.11228 -1.12314,-0.36254 z m 0.1945,-2.95 c -0.11367,-0.11367 -0.20667,-0.44595 -0.20667,-0.7384 0,-0.4163 0.22473,-0.53172 1.03528,-0.53172 0.90773,0 1.02387,0.0804 0.94261,0.65257 -0.0641,0.45145 -0.31949,0.67902 -0.82862,0.73839 -0.40476,0.0472 -0.82893,-0.007 -0.9426,-0.12084 z m -53.410869,4.8771 c 0.09061,-0.42989 0.218869,-1.05368 0.285031,-1.3862 0.07902,-0.3971 -0.176287,-0.88869 -0.743995,-1.43259 -0.631221,-0.60475 -0.766331,-0.89024 -0.501031,-1.05869 0.199791,-0.12685 0.723867,-0.23264 1.164613,-0.23508 0.661583,-0.004 0.912772,-0.23376 1.440115,-1.31919 l 0.638757,-1.31476 0.668176,1.31476 c 0.545082,1.07254 0.814088,1.31557 1.460206,1.31919 0.435615,0.002 0.955494,0.10823 1.155285,0.23508 0.265299,0.16845 0.130189,0.45394 -0.501032,1.05869 -0.661264,0.63353 -0.82748,1.00411 -0.707598,1.57761 0.08618,0.41227 0.218293,1.05139 0.293584,1.42029 l 0.136894,0.6707 -1.248621,-0.73175 -1.24862,-0.73173 -1.22825,0.69765 -1.228249,0.69766 z m 104.001129,-0.55931 c 0.23768,-1.27222 0.20041,-1.40466 -0.63909,-2.27081 -0.75557,-0.77954 -0.81857,-0.94777 -0.41318,-1.10333 0.26308,-0.10095 0.79562,-0.18355 1.18345,-0.18355 0.54917,0 0.8464,-0.29078 1.34388,-1.31475 l 0.63876,-1.31476 0.66817,1.31476 c 0.54509,1.07254 0.81409,1.31557 1.46021,1.31919 0.43562,0.002 0.9555,0.10823 1.15529,0.23508 0.2653,0.16845 0.13019,0.45394 -0.50103,1.05869 -0.66127,0.63353 -0.82748,1.00411 -0.7076,1.57761 0.0862,0.41227 0.21444,1.03606 0.28503,1.3862 l 0.12834,0.63662 -1.22825,-0.69766 -1.22825,-0.69765 -1.19906,0.70269 -1.19907,0.7027 z m -92.960139,-0.0949 c 0.168912,-1.05632 0.09256,-1.27649 -0.740886,-2.13639 l -0.929206,-0.95869 0.671805,-0.17992 c 0.369494,-0.099 0.945642,-0.18169 1.28033,-0.18387 0.427612,-0.003 0.764051,-0.34886 1.131668,-1.16409 0.28773,-0.63807 0.601209,-1.15977 0.696621,-1.15934 0.09541,4.3e-4 0.434504,0.48832 0.753539,1.08419 0.321031,0.59961 0.839097,1.12237 1.160128,1.17064 0.319036,0.048 0.892376,0.15457 1.274091,0.23688 l 0.694026,0.14965 -0.92255,0.95183 c -0.832994,0.85943 -0.903806,1.06905 -0.729465,2.15931 0.106195,0.66412 0.115573,1.20749 0.02084,1.20749 -0.09473,0 -0.633473,-0.21995 -1.197197,-0.48877 -0.961133,-0.45834 -1.088769,-0.45834 -2.049903,0 -0.563724,0.26882 -1.087324,0.48877 -1.163556,0.48877 -0.07623,0 -0.05386,-0.52997 0.04971,-1.17769 z m 10.96026,-0.0651 c 0.16839,-1.1229 0.101541,-1.32408 -0.692865,-2.08516 -0.641372,-0.61448 -0.780962,-0.90476 -0.515979,-1.07301 0.199791,-0.12685 0.767605,-0.23264 1.261811,-0.23508 0.766067,-0.004 0.975691,-0.1755 1.421701,-1.16457 0.287729,-0.63807 0.614015,-1.16013 0.725079,-1.16013 0.111065,0 0.437351,0.52206 0.725081,1.16013 0.367616,0.81523 0.704056,1.1613 1.131668,1.16409 0.334688,0.002 0.910836,0.0849 1.280329,0.18387 l 0.671805,0.17991 -0.929205,0.9587 c -0.833445,0.8599 -0.909798,1.08006 -0.740886,2.13638 0.103576,0.64773 0.125948,1.17769 0.04972,1.17769 -0.07623,0 -0.599832,-0.21994 -1.163556,-0.48877 -0.961133,-0.45833 -1.088769,-0.45833 -2.049903,0 -0.563723,0.26883 -1.1006,0.48877 -1.193059,0.48877 -0.09246,0 -0.08424,-0.55926 0.01827,-1.24282 z m 10.991208,0.0102 c 0.148444,-1.09649 0.068,-1.33499 -0.728346,-2.15931 l -0.895223,-0.92667 0.694027,-0.14966 c 0.381714,-0.0823 0.954851,-0.18911 1.273637,-0.23734 0.338417,-0.0512 0.791959,-0.53866 1.089902,-1.17142 0.280661,-0.59605 0.571869,-1.08373 0.647131,-1.08373 0.07526,0 0.403173,0.52205 0.728692,1.16012 0.465413,0.91229 0.760987,1.16449 1.383547,1.18052 0.435431,0.0112 1.044874,0.1195 1.354317,0.24063 0.514026,0.20123 0.480253,0.28089 -0.390993,0.92222 -0.890768,0.65571 -0.944989,0.79276 -0.822721,2.07962 0.07199,0.75771 0.08922,1.37766 0.03829,1.37766 -0.05093,0 -0.55383,-0.21995 -1.117554,-0.48877 -0.961133,-0.45833 -1.08877,-0.45833 -2.049903,0 -0.563724,0.26882 -1.102967,0.48877 -1.198317,0.48877 -0.09535,0 -0.09827,-0.55469 -0.0065,-1.23264 z m 38.085161,0.0549 c 0.16891,-1.05632 0.0926,-1.27649 -0.74089,-2.13639 l -0.9292,-0.95869 0.6718,-0.17992 c 0.36949,-0.099 0.96281,-0.18169 1.31849,-0.18387 0.46672,-0.003 0.82128,-0.34623 1.27414,-1.2339 l 0.62747,-1.22994 0.59569,1.22994 c 0.46272,0.95538 0.76099,1.23449 1.33615,1.25032 0.40724,0.0112 0.97381,0.11255 1.25904,0.2252 0.46204,0.18247 0.4216,0.29774 -0.37096,1.05706 -0.80543,0.77164 -0.87194,0.9698 -0.70319,2.09506 0.1025,0.68355 0.11072,1.24282 0.0182,1.24282 -0.0925,0 -0.62933,-0.21995 -1.19306,-0.48877 -0.96113,-0.45834 -1.08877,-0.45834 -2.0499,0 -0.56372,0.26882 -1.08733,0.48877 -1.16355,0.48877 -0.0762,0 -0.0539,-0.52997 0.0497,-1.17769 z m 10.98806,-0.0549 c 0.16643,-1.1158 0.0983,-1.31438 -0.71835,-2.09506 -0.8025,-0.76712 -0.84489,-0.88507 -0.38361,-1.06724 0.28523,-0.11264 0.8577,-0.21398 1.27214,-0.22519 0.59013,-0.016 0.86699,-0.27197 1.27669,-1.18052 0.28772,-0.63807 0.61401,-1.16012 0.72507,-1.16012 0.11107,0 0.43736,0.52205 0.72509,1.16012 0.40969,0.90855 0.68655,1.16455 1.27668,1.18052 0.41445,0.0112 0.98691,0.11255 1.27214,0.22519 0.46128,0.18217 0.41888,0.30012 -0.38361,1.06724 -0.81669,0.78068 -0.88478,0.97926 -0.71836,2.09506 0.10113,0.67795 0.11504,1.23264 0.0309,1.23264 -0.0841,0 -0.61418,-0.21995 -1.17791,-0.48877 -0.96112,-0.45833 -1.08876,-0.45833 -2.0499,0 -0.56372,0.26882 -1.09378,0.48877 -1.1779,0.48877 -0.0841,0 -0.0702,-0.55469 0.0309,-1.23264 z m 10.99185,0.0252 c 0.17434,-1.09027 0.10353,-1.29988 -0.72947,-2.15931 l -0.92254,-0.95183 0.69402,-0.14966 c 0.38172,-0.0823 0.95153,-0.18847 1.26625,-0.23591 0.31471,-0.0474 0.85693,-0.59384 1.20492,-1.2142 l 0.63269,-1.12794 0.61368,1.20291 c 0.48636,0.95333 0.77794,1.20713 1.40538,1.22329 0.43542,0.0112 1.04081,0.11808 1.34531,0.23748 0.50047,0.19625 0.46252,0.28197 -0.3953,0.89279 -0.8927,0.63565 -0.94091,0.75906 -0.81372,2.08277 0.0743,0.77389 0.0565,1.40161 -0.0397,1.39493 -0.0962,-0.007 -0.62344,-0.25102 -1.17158,-0.54295 -0.96765,-0.51534 -1.02248,-0.51502 -1.88521,0.0111 -0.48871,0.29803 -1.00314,0.54235 -1.14317,0.54295 -0.14002,5.9e-4 -0.16771,-0.54228 -0.0615,-1.2064 z"
       id="path1" /></g></svg>
