<?xml version="1.0" encoding="UTF-8" standalone="no"?>
<svg
        width="50.283901"
        height="58"
        viewBox="0 0 50.283901 58"
        fill="#fff"
        version="1.1"
        id="svg8"
        xmlns="http://www.w3.org/2000/svg"
>
  <defs
     id="defs8" />
  <path
     d="M 30.1256,2.90738 28.1238,1.7597 v 9.5156 l 2.0018,1.1619 z"
        fill="#fff"
     id="path1" />
  <path
     d="M 34.1578,5.25285 32.1536,4.09326 V 13.621 l 2.0042,1.1501 z"
        fill="#fff"
     id="path2" />
  <path
     d="M 38.1522,7.58665 36.1504,6.43896 v 9.51554 l 2.0018,1.1501 z"
        fill="#fff"
     id="path3" />
  <path
     d="M 3.89844,16.7729 5.90029,17.923 V 11.1179 L 3.89844,12.2656 Z"
        fill="#fff"
     id="path4" />
  <path
     d="M 1.8945,15.6129 V 13.4511 L 0,14.5367 Z"
        fill="#fff"
     id="path5" />
  <path
     d="m 50.2123,14.5627 -1.9924,-1.1501 v 2.3097 L 46.2157,16.87 v -4.605 l -1.99,-1.1477 v 6.8768 l -2.0042,1.1501 V 9.91977 l -2.04,-1.18585 v 9.52978 l 1.7966,1.0499 v 19.2785 l -0.0978,0.0596 -1.6988,-0.9759 v 1.9661 l -2.0282,1.1477 v -4.3354 l -2.0018,-1.1859 v 6.6829 l -1.9923,1.1835 v -9.0524 l -2.0043,-1.1834 v 11.3862 l -2.0281,1.1476 V 31.7132 L 28.1249,30.5274 V 46.5802 L 26.1207,47.778 V 29.3434 l -0.9783,-0.649 0.0382,-19.14306 0.9401,0.57506 V 0.61082 L 25.0708,0 24.2262,0.474816 V 10.0285 l -2.0258,1.1477 V 1.66067 l -2.0042,1.14768 v 9.51755 l -2.0043,1.1596 V 3.9939 L 16.202,5.14158 v 9.49162 l -2.04,1.1501 V 6.30336 l -1.9924,1.18347 v 9.45547 l -2.0042,1.1859 V 8.634 L 7.92969,9.95347 v 9.11443 l 0.30541,0.1718 0.07396,19.4098 1.85634,1.0881 V 37.5758 L 12.1696,36.39 v 4.5334 l 1.9924,1.1596 v -6.8789 l 2.04,-1.2216 v 9.2483 l 1.99,1.1858 V 32.7988 l 2.0042,-1.1858 v 13.9511 l 2.0043,1.162 V 30.4152 l 2.0257,-1.1835 v 18.6779 l 0.9162,0.5392 V 48.4106 58 L 50.2481,43.5002 50.2839,14.56 Z"
        fill="#fff"
     id="path6" />
</svg>
